<?xml version="1.0" encoding="UTF-8" standalone="no"?>
<!DOCTYPE svg PUBLIC "-//W3C//DTD SVG 1.1//EN" "http://www.w3.org/Graphics/SVG/1.1/DTD/svg11.dtd">
<svg version="1.1" xmlns="http://www.w3.org/2000/svg" xmlns:xlink="http://www.w3.org/1999/xlink" preserveAspectRatio="xMidYMid meet" viewBox="0 0 640 640" width="623" height="623"><defs><path d="M621.85 368.33C635.38 378.76 635.38 399.18 621.85 409.61C561.48 456.16 407.14 575.17 346.77 621.72C331 633.88 309 633.88 293.23 621.72C232.86 575.17 78.52 456.16 18.15 409.61C4.62 399.18 4.62 378.76 18.15 368.33C78.52 321.78 232.86 202.77 293.23 156.22C309 144.06 331 144.06 346.77 156.22C407.14 202.77 561.48 321.78 621.85 368.33Z" id="auMAjOzSL"></path><path d="M621.85 307.94C635.38 318.37 635.38 338.79 621.85 349.22C561.48 395.77 407.14 514.78 346.77 561.33C331 573.49 309 573.49 293.23 561.33C232.86 514.78 78.52 395.77 18.15 349.22C4.62 338.79 4.62 318.37 18.15 307.94C78.52 261.39 232.86 142.38 293.23 95.83C309 83.67 331 83.67 346.77 95.83C407.14 142.38 561.48 261.39 621.85 307.94Z" id="dPMt8cW6R"></path><path d="M621.85 229.22C635.38 239.65 635.38 260.07 621.85 270.5C561.48 317.05 407.14 436.06 346.77 482.61C331 494.77 309 494.77 293.23 482.61C232.86 436.06 78.52 317.05 18.15 270.5C4.62 260.07 4.62 239.65 18.15 229.22C78.52 182.67 232.86 63.66 293.23 17.11C309 4.95 331 4.95 346.77 17.11C407.14 63.66 561.48 182.67 621.85 229.22Z" id="b2EqPAedCa"></path></defs><g><g><g><g><use xlink:href="#auMAjOzSL" opacity="0.61" fill="#e02978" fill-opacity="1"></use></g><g><use xlink:href="#dPMt8cW6R" opacity="0.61" fill="#3f29e0" fill-opacity="1"></use></g><g><use xlink:href="#b2EqPAedCa" opacity="0.61" fill="#29bbe0" fill-opacity="1"></use></g></g></g></g></svg>