<svg width="240" height="240" viewBox="0 0 240 240" fill="none" xmlns="http://www.w3.org/2000/svg">
<rect x="3" y="3" width="234" height="234" stroke="#545454" stroke-width="6"/>
<path d="M123.38 212H134.451L138.031 190.369H160.505L156.925 212H167.971L176.664 159.636H165.619L162.039 181.241H139.565L143.144 159.636H132.073L123.38 212ZM211.641 174.849H222.252C223.658 165.338 217.087 158.92 205.428 158.92C193.948 158.92 184.539 165.236 182.928 174.773C181.701 182.494 186.406 186.892 194.843 189.04L200.315 190.472C205.812 191.801 208.752 193.514 208.138 197.017C207.525 200.827 203.485 203.46 197.809 203.46C192.056 203.46 188.298 200.801 188.86 195.56H178.147C176.536 206.835 183.746 212.741 196.403 212.741C209.212 212.741 217.701 206.631 219.312 197.043C220.769 188.324 214.914 183.696 206.17 181.651L201.67 180.526C197.323 179.503 193.718 177.764 194.46 174.031C195.022 170.631 198.397 168.176 203.817 168.176C209.11 168.176 211.82 170.58 211.641 174.849Z" fill="#545454"/>
</svg>
