<?xml version="1.0" standalone="no"?>
<!DOCTYPE svg PUBLIC "-//W3C//DTD SVG 20010904//EN"
 "http://www.w3.org/TR/2001/REC-SVG-20010904/DTD/svg10.dtd">
<svg version="1.0" xmlns="http://www.w3.org/2000/svg"
 width="700.000000pt" height="700.000000pt" viewBox="0 0 700.000000 700.000000"
 preserveAspectRatio="xMidYMid meet">
<metadata>
Created by potrace 1.11, written by Peter Selinger 2001-2013
</metadata>
<g transform="translate(0.000000,700.000000) scale(0.100000,-0.100000)"
fill="#000000" stroke="none">
<path d="M0 3500 l0 -3500 3500 0 3500 0 0 3500 0 3500 -3500 0 -3500 0 0
-3500z m6826 10 c0 -1823 -1 -3320 -3 -3325 -4 -12 -6627 -14 -6640 -2 -9 10
-12 6630 -2 6637 4 3 1500 5 3326 5 l3318 0 1 -3315z"/>
<path d="M5907 2359 c-14 -4 -28 -5 -30 -2 -8 7 -161 -35 -221 -62 -171 -76
-295 -229 -319 -397 -13 -94 -4 -153 36 -219 67 -111 159 -157 482 -238 148
-37 215 -88 215 -163 0 -120 -123 -209 -291 -209 -166 0 -257 59 -267 174 l-4
54 -157 -1 -156 -1 -3 -72 c-13 -271 203 -436 556 -427 289 8 503 118 600 309
81 160 69 332 -29 440 -69 74 -157 117 -341 165 -84 22 -172 48 -196 57 -53
20 -112 83 -112 121 0 128 104 204 280 205 132 0 220 -65 220 -164 l0 -29 155
0 c85 0 156 3 156 8 7 35 3 126 -7 165 -47 181 -218 286 -475 291 -36 1 -78
-1 -92 -5z"/>
<path d="M3860 2340 c-5 -3 -12 -21 -15 -40 -10 -59 -17 -104 -21 -125 -5 -26
-11 -62 -18 -105 -3 -19 -8 -44 -10 -56 -2 -12 -7 -45 -11 -75 -4 -30 -9 -57
-11 -60 -1 -3 -6 -30 -9 -59 -4 -30 -8 -57 -10 -60 -2 -3 -7 -33 -10 -65 -4
-33 -9 -63 -11 -66 -2 -3 -6 -24 -9 -45 -2 -21 -7 -50 -10 -64 -5 -27 -21
-119 -30 -185 -4 -22 -8 -47 -10 -55 -2 -8 -7 -37 -11 -65 -3 -27 -8 -59 -10
-70 -24 -128 -54 -319 -50 -323 4 -4 316 -10 316 -6 0 1 5 26 10 55 6 30 13
74 16 99 3 24 7 47 9 50 2 3 6 26 9 50 4 25 9 57 12 72 3 15 7 42 10 60 3 18
7 42 8 53 2 11 9 52 15 90 7 39 14 78 17 87 5 15 33 17 329 16 179 0 325 -3
325 -6 0 -4 -9 -59 -20 -122 -57 -335 -81 -484 -77 -494 4 -11 285 -13 313 -2
7 3 12 13 12 23 -1 16 6 66 16 118 2 11 13 79 25 150 12 72 23 141 26 155 3
20 95 573 110 660 2 14 16 95 30 180 39 227 39 230 23 231 -7 1 -78 2 -156 3
-163 1 -155 5 -167 -84 -4 -30 -8 -62 -10 -70 -1 -8 -6 -33 -9 -55 -4 -22 -13
-79 -21 -127 -9 -48 -18 -104 -21 -125 -3 -21 -11 -67 -17 -103 l-12 -65 -323
0 c-213 0 -322 3 -323 10 -2 21 2 61 11 105 10 47 17 89 25 155 3 22 8 51 11
65 10 42 24 133 30 180 3 25 9 57 14 72 6 19 5 30 -3 35 -14 9 -293 12 -307 3z"/>
</g>
</svg>
